<svg width="519" height="256" viewBox="0 0 519 256" fill="none" xmlns="http://www.w3.org/2000/svg">
<path d="M393 92.7998C393 170.4 297.047 221.6 267.844 235.2C262.838 237.6 256.163 237.6 251.157 235.2C221.953 221.6 126 172 126 92.7998C126 52.7999 156.872 20 194.419 20C224.456 20 249.488 40.0002 258.665 67.9998C267.843 39.9997 293.709 20 322.912 20C362.128 20 393 52.7999 393 92.7998Z" fill="#E24C4B"/>
<path d="M393 92.3001C393 169.9 297.047 221.1 267.844 234.7C262.838 237.101 256.163 237.101 250.322 234.7C236.972 229.1 211.941 215.501 186.909 196.3H187.744C267.009 196.3 330.422 134.7 330.422 59.5001C330.422 45.9 327.918 32.2999 323.747 19.5002C362.963 20.3001 393 52.3001 393 92.3001Z" fill="#D1403F"/>
<g opacity="0.2">
<path opacity="0.2" d="M190.247 80.3003C176.897 83.5003 164.381 78.7005 161.878 69.9002C160.209 60.3 168.553 50.6998 181.903 47.4998C195.253 44.2997 207.769 49.0995 210.272 57.8998C212.775 67.5 203.597 77.1002 190.247 80.3003Z" fill="white"/>
</g>
<line x1="108" y1="134.605" x2="179.192" y2="134.605" stroke="#757575" stroke-width="15"/>
<line x1="339.808" y1="133.605" x2="411" y2="133.605" stroke="#757575" stroke-width="15"/>
<line y1="-7.5" x2="45.1122" y2="-7.5" transform="matrix(0.462388 -0.886677 0.901734 0.432292 179.191 142)" stroke="#757575" stroke-width="15"/>
<line y1="-7.5" x2="85.5472" y2="-7.5" transform="matrix(0.621778 0.783193 -0.807751 0.589524 187.535 111)" stroke="#757575" stroke-width="15"/>
<line y1="-7.5" x2="78.9269" y2="-7.5" transform="matrix(0.528575 0.848887 -0.867873 0.496787 298.09 74)" stroke="#757575" stroke-width="15"/>
<line y1="-7.5" x2="130.752" y2="-7.5" transform="matrix(-0.430743 0.902475 -0.915729 -0.401798 297.047 60)" stroke="#757575" stroke-width="15"/>
<rect x="410" y="20" width="25" height="224" fill="#757575"/>
<rect x="452" y="60" width="25" height="145" fill="#757575"/>
<rect x="494" y="88" width="25" height="91" fill="#757575"/>
<rect width="25" height="224" transform="matrix(-1 0 0 1 109 20)" fill="#757575"/>
<rect width="25" height="145" transform="matrix(-1 0 0 1 67 60)" fill="#757575"/>
<rect width="25" height="91" transform="matrix(-1 0 0 1 25 88)" fill="#757575"/>
</svg>
