<svg width="670" height="262" viewBox="0 0 670 262" fill="none" xmlns="http://www.w3.org/2000/svg">
<path fill-rule="evenodd" clip-rule="evenodd" d="M619.324 74.5117V75H666.98L669.275 70.1172V69.6289H629.871L655.896 47.4609C664.653 39.388 669.048 31.6895 669.08 24.3652C669.08 17.6595 666.899 11.9954 662.537 7.37305C658.077 2.65299 652.055 0.292969 644.471 0.292969C636.886 0.292969 630.864 2.65299 626.404 7.37305C622.01 12.028 619.812 17.1549 619.812 22.7539C619.812 26.9531 620.805 30.8105 622.791 34.3262H623.279L631.482 30.3711C630.311 28.3854 629.725 25.6348 629.725 22.1191C629.725 17.1061 630.848 13.2975 633.094 10.6934C636.023 7.34049 639.816 5.66406 644.471 5.66406C649.288 5.66406 653.081 7.34049 655.848 10.6934C658.029 13.3301 659.119 17.513 659.119 23.2422C659.119 29.8177 655.359 36.9141 647.84 44.5312L621.619 69.6289L619.324 74.5117ZM0 38H26V137H85V38H111V226.745C102.222 228.161 93.5523 229.699 85 231.354V163H26V245.112C17.162 247.546 8.49167 250.114 0 252.808V163V137V38ZM122 38H147V183H147.54C147.395 183.19 147.283 183.357 147.197 183.5C147.65 184.251 148.825 185.686 151.727 187.542C157.175 191.027 166.219 194 177.5 194C188.781 194 197.825 191.027 203.273 187.542C206.175 185.686 207.35 184.251 207.803 183.5C207.717 183.357 207.605 183.19 207.46 183H208V38H233V181H232.865C232.954 181.826 233 182.66 233 183.5C233 203.106 208.152 219 177.5 219C146.848 219 122 203.106 122 183.5C122 182.66 122.046 181.826 122.135 181H122V38ZM208.067 182.92C208.07 182.921 208.063 182.963 208.033 183.043C208.048 182.959 208.063 182.919 208.067 182.92ZM146.933 182.92C146.937 182.919 146.952 182.959 146.967 183.043C146.937 182.963 146.93 182.921 146.933 182.92ZM146.933 184.08C146.93 184.079 146.937 184.037 146.967 183.957C146.952 184.041 146.937 184.081 146.933 184.08ZM208.033 183.957C208.063 184.037 208.07 184.079 208.067 184.08C208.063 184.081 208.048 184.041 208.033 183.957ZM244 38H270V193H337V217.864C312.553 215.978 287.505 215 262 215C255.974 215 249.973 215.055 244 215.163V193V38ZM348 38H374V138.679L435.711 40.1071L457.748 53.9037L397.535 150.084L397.721 150L433.964 230.772C423.835 228.851 413.544 227.095 403.104 225.508L381.065 176.391L374.038 187.616L374 187.593V221.575C365.419 220.558 356.75 219.654 348 218.866V38ZM577.656 38L600.822 50.2677L547.77 158.48V261.576C539.306 258.494 530.635 255.545 521.77 252.736V161.548L469 53.9809L492.163 41.7069L534.015 127.017L577.656 38Z" fill="#FF6B17"/>
</svg>
